<?xml version="1.0" encoding="UTF-8"?>
<svg width="62px" height="62px" viewBox="0 0 62 62" version="1.1" xmlns="http://www.w3.org/2000/svg" xmlns:xlink="http://www.w3.org/1999/xlink">
    <!-- Generator: Sketch 46.2 (44496) - http://www.bohemiancoding.com/sketch -->
    <title>Group 75</title>
    <desc>Created with Sketch.</desc>
    <defs></defs>
    <g id="Page-1" stroke="none" stroke-width="1" fill="none" fill-rule="evenodd">
        <g id="Group-75">
            <g id="Group-64">
                <g id="Group-39" transform="translate(17.000000, 14.000000)" stroke="#02BB4F" stroke-width="2" stroke-linecap="round" stroke-linejoin="round">
                    <polyline id="Shape" points="9 17.7991886 7.14705882 23.8235294 5.02941176 21.0851927 1.58823529 22.1805274 3.97058824 15.8823529"></polyline>
                    <polyline id="Shape" points="12.9970588 16.4117647 15.8823529 21.1669829 12.7058824 20.9013283 10.8529412 23.8235294 8.47058824 20.1043643"></polyline>
                    <path d="M14.7446809,2.21580547 C15.1823708,2.35258359 15.6474164,2.81762918 15.7841945,3.25531915 L16.3039514,5.06079027 C16.4407295,5.49848024 16.7142857,6.20972644 16.9331307,6.62006079 L17.8358663,8.26139818 C18.0547112,8.67173252 18.0547112,9.32826748 17.8358663,9.73860182 L16.9331307,11.3799392 C16.7142857,11.7902736 16.4133739,12.4741641 16.3039514,12.9392097 L15.7841945,14.7446809 C15.6474164,15.1823708 15.1823708,15.6474164 14.7446809,15.7841945 L12.9392097,16.3039514 C12.5015198,16.4407295 11.7902736,16.7142857 11.3799392,16.9331307 L9.73860182,17.8358663 C9.32826748,18.0547112 8.67173252,18.0547112 8.26139818,17.8358663 L6.62006079,16.9331307 C6.20972644,16.7142857 5.52583587,16.4133739 5.06079027,16.3039514 L3.25531915,15.7841945 C2.81762918,15.6474164 2.35258359,15.1823708 2.21580547,14.7446809 L1.69604863,12.9392097 C1.55927052,12.5015198 1.28571429,11.7902736 1.0668693,11.3799392 L0.164133739,9.73860182 C-0.0547112462,9.32826748 -0.0547112462,8.67173252 0.164133739,8.26139818 L1.0668693,6.62006079 C1.28571429,6.20972644 1.58662614,5.52583587 1.69604863,5.06079027 L2.21580547,3.25531915 C2.35258359,2.81762918 2.81762918,2.35258359 3.25531915,2.21580547 L5.06079027,1.69604863 C5.49848024,1.55927052 6.20972644,1.28571429 6.62006079,1.0668693 L8.26139818,0.164133739 C8.67173252,-0.0547112462 9.32826748,-0.0547112462 9.73860182,0.164133739 L11.3799392,1.0668693 C11.7902736,1.28571429 12.4741641,1.58662614 12.9392097,1.69604863 L14.7446809,2.21580547 Z" id="Shape"></path>
                    <polyline id="Shape" points="5.82352941 8.89959432 7.93263757 11.1176471 12.7058824 6.35294118"></polyline>
                </g>
                <path d="M43.9188401,7.53110024 C33.9610165,-2.42120124 17.8535457,-2.52243859 7.77141105,7.30390941 C-2.31072364,17.1302574 -2.62335301,33.2350122 7.06982678,43.4452434 C16.7630066,53.6554746 32.8622712,54.1794421 43.1988401,44.6211002 L59.8388401,61.2611002 L61.2488401,59.8511002 L44.5988401,43.2011002 C53.9747656,33.0527656 53.6747411,17.3147127 43.9188401,7.53110024 Z M8.91884009,42.5311002 C2.12824194,35.7418894 0.0962592622,25.5305116 3.77047597,16.6588861 C7.44469268,7.78726059 16.101465,2.00267045 25.7038401,2.00267045 C35.3062152,2.00267045 43.9629875,7.78726059 47.6372042,16.6588861 C51.3114209,25.5305116 49.2794382,35.7418894 42.4888401,42.5311002 C33.2092623,51.7766579 18.1973916,51.7677116 8.92884009,42.5111002 L8.91884009,42.5311002 Z" id="Shape" fill="#000000" fill-rule="nonzero"></path>
            </g>
        </g>
    </g>
</svg>