<?xml version="1.0" encoding="UTF-8"?>
<svg width="88px" height="86px" viewBox="0 0 88 86" version="1.1" xmlns="http://www.w3.org/2000/svg" xmlns:xlink="http://www.w3.org/1999/xlink">
    <!-- Generator: Sketch 46.2 (44496) - http://www.bohemiancoding.com/sketch -->
    <title>Group 63</title>
    <desc>Created with Sketch.</desc>
    <defs></defs>
    <g id="Page-1" stroke="none" stroke-width="1" fill="none" fill-rule="evenodd">
        <g id="Group-63">
            <g id="Group-38-Copy" fill-rule="nonzero" fill="#424242">
                <path d="M64,0 L0,0 L0,50.3225806 L29.7775484,50.3225806 L27.7130323,65 L30.180129,65 L33.9901935,63.0646774 L36.8485161,65 L39.1174194,65 L40.2580645,54.5779839 L41.3976774,65 L43.6665806,65 L46.5259355,63.0646774 L50.3370323,65 L52.804129,65 L50.7396129,50.3225806 L64,50.3225806 L64,0 Z M49.5463226,41.8442742 C51.4683871,39.6269355 52.6451613,36.7281452 52.6451613,33.5483871 C52.6451613,26.6112097 47.0885161,20.9677419 40.2580645,20.9677419 C33.4276129,20.9677419 27.8709677,26.6112097 27.8709677,33.5483871 C27.8709677,36.7281452 29.0477419,39.6269355 30.9698065,41.8442742 L30.6621935,44.0322581 L10.2183226,44.0322581 C9.80748387,41.9816129 8.21264516,40.3618548 6.19354839,39.9445968 L6.19354839,10.3779839 C8.21264516,9.96072581 9.80748387,8.34096774 10.2183226,6.29032258 L53.7806452,6.29032258 C54.1914839,8.34096774 55.7863226,9.96072581 57.8054194,10.3779839 L57.8054194,39.9435484 C55.7863226,40.3608065 54.1914839,41.9805645 53.7806452,44.0312097 L49.8539355,44.0312097 L49.5463226,41.8442742 Z M40.2580645,44.0322581 C34.5661935,44.0322581 29.9354839,39.3291935 29.9354839,33.5483871 C29.9354839,27.7675806 34.5661935,23.0645161 40.2580645,23.0645161 C45.9499355,23.0645161 50.5806452,27.7675806 50.5806452,33.5483871 C50.5806452,39.3291935 45.9499355,44.0322581 40.2580645,44.0322581 Z M34.1388387,60.645 L30.1233548,62.6830645 L32.8113548,43.5783065 C33.5205161,44.1224194 34.2854194,44.5910484 35.1009032,44.9726613 L33.6794839,54.3567742 L35.7202581,54.6754839 L37.0807742,45.6939516 C37.7393548,45.8721774 38.4144516,46.0053226 39.1112258,46.0703226 L37.2830968,62.7753226 L34.1388387,60.645 Z M46.3772903,60.645 L43.2330323,62.7742742 L41.4049032,46.0692742 C42.1016774,46.0042742 42.7767742,45.871129 43.4353548,45.6929032 L44.795871,54.6744355 L46.8366452,54.3557258 L45.4152258,44.9716129 C46.2307097,44.59 46.9956129,44.121371 47.7047742,43.5772581 L50.3927742,62.6820161 L46.3772903,60.645 Z M61.9354839,48.2258065 L50.4443871,48.2258065 L50.1491613,46.1290323 L55.7419355,46.1290323 L55.7419355,45.0806452 C55.7419355,43.3466129 57.1313548,41.9354839 58.8387097,41.9354839 L59.8709677,41.9354839 L59.8709677,8.38709677 L58.8387097,8.38709677 C57.1313548,8.38709677 55.7419355,6.97596774 55.7419355,5.24193548 L55.7419355,4.19354839 L8.25806452,4.19354839 L8.25806452,5.24193548 C8.25806452,6.97596774 6.86864516,8.38709677 5.16129032,8.38709677 L4.12903226,8.38709677 L4.12903226,41.9354839 L5.16129032,41.9354839 C6.86864516,41.9354839 8.25806452,43.3466129 8.25806452,45.0806452 L8.25806452,46.1290323 L30.3669677,46.1290323 L30.0717419,48.2258065 L2.06451613,48.2258065 L2.06451613,2.09677419 L61.9354839,2.09677419 L61.9354839,48.2258065 Z" id="Shape"></path>
                <path d="M41.5,25 C36.8133125,25 33,28.8133125 33,33.5 C33,38.1866875 36.8133125,42 41.5,42 C46.1866875,42 50,38.1866875 50,33.5 C50,28.8133125 46.1866875,25 41.5,25 Z M41.5,39.875 C37.9841875,39.875 35.125,37.0158125 35.125,33.5 C35.125,29.9841875 37.9841875,27.125 41.5,27.125 C45.0158125,27.125 47.875,29.9841875 47.875,33.5 C47.875,37.0158125 45.0158125,39.875 41.5,39.875 Z" id="Shape"></path>
                <rect id="Rectangle-path" transform="translate(35.000841, 57.001162) rotate(-81.262986) translate(-35.000841, -57.001162) " x="34.0008458" y="56.0011667" width="2" height="2"></rect>
                <rect id="Rectangle-path" transform="translate(46.997708, 57.003305) rotate(-8.737014) translate(-46.997708, -57.003305) " x="45.9977454" y="56.0033402" width="2" height="2"></rect>
            </g>
            <rect id="Rectangle-30" fill="#FFFFFF" x="9" y="9" width="72" height="60"></rect>
            <g id="Group-38-Copy" transform="translate(11.000000, 12.000000)" fill-rule="nonzero" fill="#424242">
                <path d="M64,0 L0,0 L0,50.3225806 L29.7775484,50.3225806 L27.7130323,65 L30.180129,65 L33.9901935,63.0646774 L36.8485161,65 L39.1174194,65 L40.2580645,54.5779839 L41.3976774,65 L43.6665806,65 L46.5259355,63.0646774 L50.3370323,65 L52.804129,65 L50.7396129,50.3225806 L64,50.3225806 L64,0 Z M49.5463226,41.8442742 C51.4683871,39.6269355 52.6451613,36.7281452 52.6451613,33.5483871 C52.6451613,26.6112097 47.0885161,20.9677419 40.2580645,20.9677419 C33.4276129,20.9677419 27.8709677,26.6112097 27.8709677,33.5483871 C27.8709677,36.7281452 29.0477419,39.6269355 30.9698065,41.8442742 L30.6621935,44.0322581 L10.2183226,44.0322581 C9.80748387,41.9816129 8.21264516,40.3618548 6.19354839,39.9445968 L6.19354839,10.3779839 C8.21264516,9.96072581 9.80748387,8.34096774 10.2183226,6.29032258 L53.7806452,6.29032258 C54.1914839,8.34096774 55.7863226,9.96072581 57.8054194,10.3779839 L57.8054194,39.9435484 C55.7863226,40.3608065 54.1914839,41.9805645 53.7806452,44.0312097 L49.8539355,44.0312097 L49.5463226,41.8442742 Z M40.2580645,44.0322581 C34.5661935,44.0322581 29.9354839,39.3291935 29.9354839,33.5483871 C29.9354839,27.7675806 34.5661935,23.0645161 40.2580645,23.0645161 C45.9499355,23.0645161 50.5806452,27.7675806 50.5806452,33.5483871 C50.5806452,39.3291935 45.9499355,44.0322581 40.2580645,44.0322581 Z M34.1388387,60.645 L30.1233548,62.6830645 L32.8113548,43.5783065 C33.5205161,44.1224194 34.2854194,44.5910484 35.1009032,44.9726613 L33.6794839,54.3567742 L35.7202581,54.6754839 L37.0807742,45.6939516 C37.7393548,45.8721774 38.4144516,46.0053226 39.1112258,46.0703226 L37.2830968,62.7753226 L34.1388387,60.645 Z M46.3772903,60.645 L43.2330323,62.7742742 L41.4049032,46.0692742 C42.1016774,46.0042742 42.7767742,45.871129 43.4353548,45.6929032 L44.795871,54.6744355 L46.8366452,54.3557258 L45.4152258,44.9716129 C46.2307097,44.59 46.9956129,44.121371 47.7047742,43.5772581 L50.3927742,62.6820161 L46.3772903,60.645 Z M61.9354839,48.2258065 L50.4443871,48.2258065 L50.1491613,46.1290323 L55.7419355,46.1290323 L55.7419355,45.0806452 C55.7419355,43.3466129 57.1313548,41.9354839 58.8387097,41.9354839 L59.8709677,41.9354839 L59.8709677,8.38709677 L58.8387097,8.38709677 C57.1313548,8.38709677 55.7419355,6.97596774 55.7419355,5.24193548 L55.7419355,4.19354839 L8.25806452,4.19354839 L8.25806452,5.24193548 C8.25806452,6.97596774 6.86864516,8.38709677 5.16129032,8.38709677 L4.12903226,8.38709677 L4.12903226,41.9354839 L5.16129032,41.9354839 C6.86864516,41.9354839 8.25806452,43.3466129 8.25806452,45.0806452 L8.25806452,46.1290323 L30.3669677,46.1290323 L30.0717419,48.2258065 L2.06451613,48.2258065 L2.06451613,2.09677419 L61.9354839,2.09677419 L61.9354839,48.2258065 Z" id="Shape"></path>
                <path d="M41.5,25 C36.8133125,25 33,28.8133125 33,33.5 C33,38.1866875 36.8133125,42 41.5,42 C46.1866875,42 50,38.1866875 50,33.5 C50,28.8133125 46.1866875,25 41.5,25 Z M41.5,39.875 C37.9841875,39.875 35.125,37.0158125 35.125,33.5 C35.125,29.9841875 37.9841875,27.125 41.5,27.125 C45.0158125,27.125 47.875,29.9841875 47.875,33.5 C47.875,37.0158125 45.0158125,39.875 41.5,39.875 Z" id="Shape"></path>
                <rect id="Rectangle-path" transform="translate(35.000841, 57.001162) rotate(-81.262986) translate(-35.000841, -57.001162) " x="34.0008458" y="56.0011667" width="2" height="2"></rect>
                <rect id="Rectangle-path" transform="translate(46.997708, 57.003305) rotate(-8.737014) translate(-46.997708, -57.003305) " x="45.9977454" y="56.0033402" width="2" height="2"></rect>
            </g>
            <rect id="Rectangle-28" fill="#FFFFFF" x="19" y="21" width="69" height="57"></rect>
            <g id="Group-74" transform="translate(21.000000, 24.000000)">
                <g id="Group-73">
                    <g id="Group-68" stroke="#424242" stroke-width="2">
                        <rect id="Rectangle-29" x="1" y="1" width="62" height="49"></rect>
                        <path d="M59,8.87398251 C57.2747728,8.42993972 56,6.86383943 56,5 L9,5 C9,7.209139 7.209139,9 5,9 L5,43 C6.86383943,43 8.42993972,44.2747728 8.87398251,46 L56.1260175,46 C56.4877958,44.5943927 57.5943927,43.4877958 59,43.1260175 L59,8.87398251 Z" id="Combined-Shape"></path>
                    </g>
                    <polygon id="Path-27" fill="#FFFFFF" points="34.1344983 52.4154088 32.1523088 49.8990271 30.8930664 44.3210302 35.2396873 35.7050781 50.9200155 42.8330736 53 44.3210302 50.9200155 48.0651075 50.9200155 49.8990271 49.3021913 54.0674086"></polygon>
                    <g id="Group-39" transform="translate(28.000000, 26.000000)" stroke="#02BB4F" stroke-width="2" stroke-linecap="round" stroke-linejoin="round">
                        <polyline id="Shape" points="13 25.8965517 10.25 35 7.10714286 30.862069 2 32.5172414 5.53571429 23"></polyline>
                        <polyline id="Shape" points="18.7178571 24 23 31.0573477 18.2857143 30.6630824 15.5357143 35 12 29.4802867"></polyline>
                        <path d="M22.1170213,3.32370821 C22.7735562,3.52887538 23.4711246,4.22644377 23.6762918,4.88297872 L24.4559271,7.59118541 C24.6610942,8.24772036 25.0714286,9.31458967 25.399696,9.93009119 L26.7537994,12.3920973 C27.0820669,13.0075988 27.0820669,13.9924012 26.7537994,14.6079027 L25.399696,17.0699088 C25.0714286,17.6854103 24.6200608,18.7112462 24.4559271,19.4088146 L23.6762918,22.1170213 C23.4711246,22.7735562 22.7735562,23.4711246 22.1170213,23.6762918 L19.4088146,24.4559271 C18.7522796,24.6610942 17.6854103,25.0714286 17.0699088,25.399696 L14.6079027,26.7537994 C13.9924012,27.0820669 13.0075988,27.0820669 12.3920973,26.7537994 L9.93009119,25.399696 C9.31458967,25.0714286 8.2887538,24.6200608 7.59118541,24.4559271 L4.88297872,23.6762918 C4.22644377,23.4711246 3.52887538,22.7735562 3.32370821,22.1170213 L2.54407295,19.4088146 C2.33890578,18.7522796 1.92857143,17.6854103 1.60030395,17.0699088 L0.246200608,14.6079027 C-0.0820668693,13.9924012 -0.0820668693,13.0075988 0.246200608,12.3920973 L1.60030395,9.93009119 C1.92857143,9.31458967 2.37993921,8.2887538 2.54407295,7.59118541 L3.32370821,4.88297872 C3.52887538,4.22644377 4.22644377,3.52887538 4.88297872,3.32370821 L7.59118541,2.54407295 C8.24772036,2.33890578 9.31458967,1.92857143 9.93009119,1.60030395 L12.3920973,0.246200608 C13.0075988,-0.0820668693 13.9924012,-0.0820668693 14.6079027,0.246200608 L17.0699088,1.60030395 C17.6854103,1.92857143 18.7112462,2.37993921 19.4088146,2.54407295 L22.1170213,3.32370821 Z" id="Shape"></path>
                        <polyline id="Shape" points="9 13.7413793 12.0645161 17 19 10"></polyline>
                    </g>
                </g>
            </g>
        </g>
    </g>
</svg>