<?xml version="1.0" encoding="UTF-8"?>
<svg width="80px" height="81px" viewBox="0 0 80 81" version="1.1" xmlns="http://www.w3.org/2000/svg" xmlns:xlink="http://www.w3.org/1999/xlink">
    <!-- Generator: Sketch 46.2 (44496) - http://www.bohemiancoding.com/sketch -->
    <title>Group 76</title>
    <desc>Created with Sketch.</desc>
    <defs></defs>
    <g id="Page-1" stroke="none" stroke-width="1" fill="none" fill-rule="evenodd">
        <g id="Group-76" transform="translate(-1.000000, 0.000000)">
            <g id="Group-Copy-2" fill-rule="nonzero" fill="#000000">
                <path d="M35.84375,0.36218 C35.7224567,0.382360625 35.6059248,0.424735868 35.5,0.48718 L1.5,20.48718 C1.09845108,20.7094195 0.899701842,21.1764418 1.01795522,21.6198919 C1.13620861,22.0633421 1.54111011,22.3693908 2,22.36218 L10.25,22.36218 L14,27.67468 L14,51.01843 L10.1875,56.33093 C10.1768544,56.3411152 10.1664352,56.3515344 10.15625,56.36218 L6,56.36218 C5.96876718,56.3607145 5.93748282,56.3607145 5.90625,56.36218 C5.60268081,56.3862243 5.32660503,56.5472685 5.15625,56.79968 L1.15625,62.79968 C0.94613555,63.1085304 0.925656068,63.5087334 1.10314608,63.8374186 C1.28063609,64.1661038 1.62650702,64.3684776 2,64.36218 L70,64.36218 C70.373493,64.3684776 70.7193639,64.1661038 70.8968539,63.8374186 C71.0743439,63.5087334 71.0538645,63.1085304 70.84375,62.79968 L66.84375,56.79968 C66.6541915,56.5209845 66.3370038,56.3565168 66,56.36218 L61.84375,56.36218 C61.83406,56.3409912 61.8236371,56.3201453 61.8125,56.29968 L58,51.01843 L58,27.64343 L61.71875,22.36218 L70,22.36218 C70.4588899,22.3693908 70.8637914,22.0633421 70.9820448,21.6198919 C71.1002982,21.1764418 70.9015489,20.7094195 70.5,20.48718 L36.5,0.48718 C36.302044,0.371524784 36.0703613,0.327394734 35.84375,0.36218 Z M36,2.48718 L66.375,20.36218 L5.625,20.36218 L36,2.48718 Z M12.6875,22.36218 L23.3125,22.36218 L20.1875,26.79968 C20.0695777,26.9639163 20.0042039,27.1600376 20,27.36218 L20,51.36218 C19.9977277,51.5750061 20.0634122,51.7830071 20.1875,51.95593 L23.375,56.36218 L12.625,56.36218 L15.8125,51.95593 C15.9365878,51.7830071 16.0022723,51.5750061 16,51.36218 L16,27.36218 C15.9957961,27.1600376 15.9304223,26.9639163 15.8125,26.79968 L12.6875,22.36218 Z M25.75,22.36218 L28.28125,22.36218 L32,27.64343 L32,51.01843 L28.1875,56.29968 C28.1763629,56.3201453 28.16594,56.3409912 28.15625,56.36218 L25.84375,56.36218 C25.8335648,56.3515344 25.8231456,56.3411152 25.8125,56.33093 L22,51.01843 L22,27.67468 L25.75,22.36218 Z M30.71875,22.36218 L41.28125,22.36218 L38.1875,26.76843 C38.0634122,26.9413529 37.9977277,27.1493539 38,27.36218 L38,51.36218 C38.0042039,51.5643224 38.0695777,51.7604437 38.1875,51.92468 L41.375,56.36218 L30.625,56.36218 L33.8125,51.92468 C33.9304223,51.7604437 33.9957961,51.5643224 34,51.36218 L34,27.36218 C34.0022723,27.1493539 33.9365878,26.9413529 33.8125,26.76843 L30.71875,22.36218 Z M43.71875,22.36218 L46.28125,22.36218 L50,27.64343 L50,51.01843 L46.1875,56.29968 C46.1763629,56.3201453 46.16594,56.3409912 46.15625,56.36218 L43.84375,56.36218 C43.83406,56.3409912 43.8236371,56.3201453 43.8125,56.29968 L40,51.01843 L40,27.64343 L43.71875,22.36218 Z M48.71875,22.36218 L59.28125,22.36218 L56.1875,26.76843 C56.0634122,26.9413529 55.9977277,27.1493539 56,27.36218 L56,51.36218 C56.0042039,51.5643224 56.0695777,51.7604437 56.1875,51.92468 L59.375,56.36218 L48.625,56.36218 L51.8125,51.92468 C51.9304223,51.7604437 51.9957961,51.5643224 52,51.36218 L52,27.36218 C52.0022723,27.1493539 51.9365878,26.9413529 51.8125,26.76843 L48.71875,22.36218 Z M6.5625,58.36218 L65.4375,58.36218 L68.125,62.36218 L3.875,62.36218 L6.5625,58.36218 Z" id="Shape"></path>
            </g>
            <rect id="Rectangle-27-Copy-2" fill="#02BB4F" x="41" y="41" width="40" height="40" rx="20"></rect>
            <path d="M59.6758951,62.0000222 C59.6113061,62.0000222 59.5466063,62.0011306 59.4819175,62.0034583 C59.1369366,62.0163606 58.7894507,62.0683023 58.4496795,62.1593388 C55.9717541,62.8232964 54.4950302,65.3829641 55.1589878,67.8609018 C55.8229456,70.3388272 58.3826187,71.8155511 60.8605441,71.1515934 C63.3384696,70.4876358 64.8151935,67.9279626 64.1512358,65.4500249 C64.1173333,65.2895466 63.9976139,65.1608903 63.8399872,65.1155419 C63.6823605,65.0701935 63.5125754,65.1155609 63.3985769,65.2334889 C63.2845784,65.3514168 63.2449885,65.5226413 63.2956505,65.6786414 C63.8355733,67.6936709 62.646945,69.7560852 60.6319277,70.2960191 C58.6169104,70.8359309 56.554496,69.6473026 56.0145622,67.6322853 C55.4746504,65.6172558 56.6632787,63.554847 58.678296,63.0149131 C59.7789915,62.7199895 60.9548283,62.9391953 61.8754572,63.6107014 C62.0035402,63.7041358 62.1717405,63.7221411 62.3166985,63.6579351 C62.4616565,63.5937291 62.5613497,63.457066 62.5782246,63.2994257 C62.5950996,63.1417853 62.5265926,62.9871169 62.3985095,62.8936826 C61.5992442,62.3106967 60.6447967,62.0040569 59.6758951,62 L59.6758951,62.0000222 Z M64.5045522,62.3290969 C64.3894574,62.3354645 64.2813658,62.3864013 64.2031886,62.4711107 C63.034479,63.6938901 60.6987336,66.2203488 59.4022426,67.5872714 L57.8434939,66.212102 C57.7246911,66.1069122 57.5587946,66.0730933 57.4082962,66.1233846 C57.2577977,66.173676 57.1455615,66.3004371 57.1138658,66.4559183 C57.0821702,66.6113994 57.1358304,66.7719794 57.2546333,66.8771692 L59.1389873,68.5398456 C59.3182721,68.6986263 59.5912406,68.6863581 59.755559,68.5121345 C60.9953309,67.2150339 63.6205574,64.3608184 64.844013,63.0807546 C64.9707207,62.9501333 65.0047568,62.7553558 64.9298558,62.5895048 C64.8549547,62.4236537 64.6863245,62.3204036 64.5045522,62.3290969 L64.5045522,62.3290969 Z" id="Shape-Copy-2" fill="#FFFFFF" fill-rule="nonzero"></path>
            <path d="M72.1263001,59.1508588 L71.346211,59.1508588 L71.346211,56.3050936 C71.346211,55.27263 70.5064606,54.4328796 69.473997,54.4328796 L53.590633,54.4328796 C53.1265736,54.4328796 52.7488856,54.0551917 52.7488856,53.5908826 C52.7488856,53.1265736 53.1265736,52.7488856 53.590633,52.7488856 L69.1000535,52.7488856 C69.3067459,52.7488856 69.4744963,52.5813848 69.4744963,52.3744428 C69.4744963,52.1675007 69.3067459,52 69.1000535,52 L53.590633,52 C52.7134383,52 52,52.713688 52,53.5908826 L52,67.3324339 C52,68.3648975 52.8397504,69.2046478 53.872214,69.2046478 L54.4184012,69.2046478 C54.6250936,69.2046478 54.792844,69.0371471 54.792844,68.8302051 C54.792844,68.623263 54.6250936,68.4557623 54.4184012,68.4557623 L53.872214,68.4557623 C53.2528856,68.4557623 52.7488856,67.9517623 52.7488856,67.3324339 L52.7488856,54.9381278 C52.9932719,55.0913997 53.2813432,55.1817652 53.590633,55.1817652 L69.473997,55.1817652 C70.0933254,55.1817652 70.5973254,55.6857652 70.5973254,56.3050936 L70.5973254,59.1508588 L67.320951,59.1508588 C66.8391679,59.1508588 66.4472511,59.5427756 66.4472511,60.0245587 L66.4472511,63.6129688 C66.4472511,64.0947519 66.8391679,64.4866686 67.320951,64.4866686 L70.5973254,64.4866686 L70.5973254,67.3324339 C70.5973254,67.9517623 70.0933254,68.4557623 69.473997,68.4557623 L64.9057712,68.4557623 C64.6990788,68.4557623 64.5313284,68.623263 64.5313284,68.8302051 C64.5313284,69.0371471 64.6990788,69.2046478 64.9057712,69.2046478 L69.473997,69.2046478 C70.5064606,69.2046478 71.346211,68.3648975 71.346211,67.3324339 L71.346211,64.4866686 L72.1263001,64.4866686 C72.6080832,64.4866686 73,64.0947519 73,63.6129688 L73,60.0245587 C73,59.5427756 72.6078336,59.1508588 72.1263001,59.1508588 Z M72.2511144,63.6129688 C72.2511144,63.6818663 72.194948,63.7377831 72.1263001,63.7377831 L67.320951,63.7377831 C67.2523031,63.7377831 67.1961367,63.6818663 67.1961367,63.6129688 L67.1961367,60.0245587 C67.1961367,59.9556612 67.2523031,59.8997444 67.320951,59.8997444 L72.1263001,59.8997444 C72.194948,59.8997444 72.2511144,59.9556612 72.2511144,60.0245587 L72.2511144,63.6129688 Z M68.4285527,60.5627578 C68.2218603,60.5627578 68.05411,60.7302585 68.05411,60.9372006 L68.05411,62.7003269 C68.05411,62.9072689 68.2218603,63.0747697 68.4285527,63.0747697 C68.6352452,63.0747697 68.8029955,62.9072689 68.8029955,62.7003269 L68.8029955,60.9372006 C68.8029955,60.7302585 68.6352452,60.5627578 68.4285527,60.5627578 Z M69.1000535,53.2164398 L53.872214,53.2164398 C53.6655215,53.2164398 53.4977712,53.3839406 53.4977712,53.5908826 C53.4977712,53.7978247 53.6655215,53.9653254 53.872214,53.9653254 L69.1000535,53.9653254 C69.3067459,53.9653254 69.4744963,53.7978247 69.4744963,53.5908826 C69.4744963,53.3839406 69.3069955,53.2164398 69.1000535,53.2164398 Z" id="Shape-Copy-3" fill="#FFFFFF" fill-rule="nonzero"></path>
        </g>
    </g>
</svg>